<svg width="97" height="97" viewBox="0 0 97 97" fill="none" xmlns="http://www.w3.org/2000/svg">
<path d="M76.5756 80.6887C76.7745 79.9612 77.2406 79.4083 77.7881 78.933C81.6167 75.6161 84.678 71.6779 87.122 67.2654C89.465 63.0347 91.0543 58.5024 91.8265 53.7382C92.36 50.4402 92.5651 47.1112 92.3483 43.7332C92.0316 38.8075 90.9903 34.102 89.1236 29.5445C87.1239 24.6688 84.3187 20.3319 80.7602 16.4563C78.0559 13.5114 75.0193 10.9685 71.6189 8.88497C66.897 5.99049 61.8219 4.01945 56.3453 3.0121C52.6101 2.32915 48.8015 2.13821 45.0167 2.44417C39.1429 2.90977 33.5426 4.49572 28.2784 7.30096C23.1922 10.0116 18.8325 13.5162 15.0743 17.871C12.7337 20.5836 10.8063 23.5494 9.18927 26.7048C7.38265 30.2342 6.17694 33.9983 5.40337 37.904C4.88442 40.5259 4.64289 43.1798 4.58614 45.8269C4.53147 48.4793 4.74433 51.1305 5.22149 53.7402C6.0586 58.3195 7.51942 62.7175 9.73199 66.8201C11.2866 69.7021 13.1546 72.4036 15.3022 74.8755C18.1322 78.141 21.3536 80.9026 24.9891 83.2316C29.6383 86.2109 34.6348 88.2523 40.0629 89.2776C43.0486 89.8416 46.0342 90.2835 49.0839 90.0919" stroke="black" stroke-width="2" stroke-linecap="round" stroke-linejoin="round"/>
<path d="M58.8692 30.0989C59.266 29.2012 59.1263 28.3001 58.7465 27.4654C57.922 25.6524 57.0262 23.9055 55.9093 22.2119C54.9364 20.736 53.9543 19.2359 52.9149 17.7925C52.1874 16.7823 51.3459 15.8487 50.503 14.931C49.6392 13.9896 47.6202 13.9431 46.6778 14.9393C44.8455 16.8759 43.0786 18.9299 41.7856 21.2336C40.8093 22.9733 39.4576 24.5093 38.8271 26.4634C38.475 27.5536 38.009 28.5974 38.088 29.7706C38.1307 30.4059 37.5584 30.7779 37.506 31.4196C37.2053 35.206 38.4324 38.4036 41.175 40.9741C43.1868 42.8602 45.6157 43.871 48.53 43.8467V76.7297" stroke="black" stroke-width="2" stroke-linecap="round" stroke-linejoin="round"/>
<path d="M60.849 44.8359C61.2142 45.4863 61.334 46.1784 61.2952 46.9258C61.1376 49.863 61.5018 52.788 61.5406 55.7232C61.5629 57.4207 62.7817 58.5154 64.4787 58.6885C67.2946 58.9761 70.1222 58.9426 72.9459 58.8971C73.8227 58.8759 74.6914 59.0703 75.4756 59.4631" stroke="black" stroke-width="2" stroke-linecap="round" stroke-linejoin="round"/>
<path d="M36.214 44.8359C35.8483 45.4863 35.729 46.1784 35.7673 46.9258C35.9249 49.863 35.6029 52.7904 35.5248 55.7227C35.4807 57.4154 34.2842 58.5086 32.5828 58.69C29.8401 58.981 27.0858 58.9325 24.3349 58.9C23.3881 58.8833 22.4494 59.0756 21.5854 59.4631" stroke="black" stroke-width="2" stroke-linecap="round" stroke-linejoin="round"/>
<path d="M58.4294 61.9927C63.0286 66.6288 70.8342 66.0104 74.8514 60.9441C75.787 59.7641 76.8671 58.5021 77.3637 56.9394C77.8061 55.547 78.6427 54.2477 78.6301 52.7549C78.6218 51.8013 79.1922 51.0918 79.327 50.2251C79.6272 48.2914 79.9284 46.3659 80.0438 44.3997C80.1074 43.3109 80.1345 42.388 79.5714 41.4116C79.0913 40.5789 78.3866 40.3315 77.5645 40.2239C76.126 40.0357 74.7059 40.38 73.2781 40.4664C72.1202 40.5345 70.9762 40.7548 69.8758 41.1216C67.7035 41.8578 65.3372 41.8515 63.259 42.9481C62.4258 43.388 61.5203 43.7033 60.9824 44.521C60.8974 44.6559 60.7717 44.7602 60.6235 44.8188C57.2896 45.8858 56.1509 48.7958 55.4243 51.6728C54.4616 55.4844 55.4374 59.0216 58.3193 61.8816" stroke="black" stroke-width="2" stroke-linecap="round" stroke-linejoin="round"/>
<path d="M38.7432 61.8825C42.8264 57.9894 42.9928 51.3318 39.3082 46.9129C38.509 45.9531 37.795 45.0079 36.4366 44.8139C35.9603 44.7469 35.9031 44.0718 35.4486 43.8361C33.3321 42.7424 31.2408 41.5905 28.7348 41.7506C28.6167 41.7556 28.5009 41.7167 28.4098 41.6415C27.5683 40.8524 26.4247 40.817 25.43 40.7117C23.6782 40.5264 21.938 40.1297 20.1566 40.2097C18.5983 40.281 17.4954 41.0008 16.9784 42.4199C16.862 42.734 16.8247 43.072 16.8697 43.404C17.2335 45.6316 17.184 47.9145 17.7355 50.1149C17.7524 50.1843 17.717 50.2687 17.7403 50.3332C18.6191 52.7582 18.7181 55.4208 20.0431 57.7052C20.3491 58.2334 20.5654 58.8066 21.1373 59.1486C21.3138 59.2543 21.5156 59.3804 21.6053 59.6767C22.3221 62.0416 24.2897 63.1154 26.319 64.0747C30.4565 66.0307 35.5442 65.1786 38.6331 61.9921" stroke="black" stroke-width="2" stroke-linecap="round" stroke-linejoin="round"/>
<path d="M48.6411 38.1269C49.6596 38.0206 50.4545 37.5492 51.1835 36.8174C53.0522 34.9472 54.9777 33.1314 56.8934 31.3097C57.4356 30.7937 57.9953 30.2825 58.8053 30.0851C59.7792 31.1443 59.7932 32.3321 59.5813 33.7333C59.333 35.3793 58.945 36.9653 58.0715 38.3272C55.8861 41.7338 52.8402 43.8111 48.531 43.8455V14.3721" stroke="black" stroke-width="2" stroke-linecap="round" stroke-linejoin="round"/>
<path d="M68.5474 41.8662C68.98 43.3149 68.6929 44.799 68.7623 46.2656C68.8268 47.6236 68.9034 48.9239 69.724 50.1369C70.3337 51.038 71.1063 51.3886 72.0671 51.4202C73.6782 51.4725 75.2928 51.4488 76.9054 51.4265C77.4734 51.4187 78.0209 51.475 78.5544 51.6544" stroke="black" stroke-width="2" stroke-linecap="round" stroke-linejoin="round"/>
<path d="M28.518 41.8662C28.2677 42.4686 28.3041 43.103 28.2939 43.7359C28.2697 45.2394 28.387 46.7686 28.1484 48.2381C27.8434 50.1024 26.708 51.4682 24.8897 51.4391C23.3139 51.4143 21.7372 51.4483 20.161 51.426C19.593 51.4182 19.0455 51.4745 18.512 51.6539" stroke="black" stroke-width="2" stroke-linecap="round" stroke-linejoin="round"/>
<path d="M38.3033 29.9888C38.9435 30.1212 39.3927 30.5339 39.849 30.9728C42.0354 33.0768 44.2475 35.1526 46.4382 37.2512C47.0018 37.7915 47.6275 38.1048 48.4214 38.0175" stroke="black" stroke-width="2" stroke-linecap="round" stroke-linejoin="round"/>
<path d="M61.9485 58.2529C58.2824 61.919 54.5654 65.5357 50.9768 69.276C49.5985 70.7121 47.464 70.7121 46.0856 69.276C42.4966 65.5357 38.7801 61.919 35.114 58.2529" stroke="black" stroke-width="2" stroke-linecap="round" stroke-linejoin="round"/>
<path d="M74.871 72.6606C74.8894 74.5667 74.9195 76.4732 74.9195 78.3793C74.9195 79.0127 75.0378 79.5772 75.3395 80.1529C75.5403 80.5366 75.7857 80.5676 76.1227 80.7184C78.5172 81.7908 81.0503 81.1414 83.5043 81.4037" stroke="black" stroke-width="2" stroke-linecap="round" stroke-linejoin="round"/>
<path d="M78.7752 41.5366L70.307 49.8951" stroke="black" stroke-width="2" stroke-linecap="round" stroke-linejoin="round"/>
<path d="M18.3975 41.5366L26.7555 49.8951" stroke="black" stroke-width="2" stroke-linecap="round" stroke-linejoin="round"/>
<path d="M55.678 22.2905C53.9524 23.3221 52.8019 24.9905 51.2912 26.2641C50.4929 26.9373 49.7445 27.6192 48.6392 27.6794" stroke="black" stroke-width="2" stroke-linecap="round" stroke-linejoin="round"/>
<path d="M41.6028 22.4004C43.2732 23.6493 44.6908 25.1775 46.2103 26.5947C46.8617 27.2033 47.5431 27.6083 48.4239 27.6791" stroke="black" stroke-width="2" stroke-linecap="round" stroke-linejoin="round"/>
<path d="M27.5257 50.7749L34.2342 57.371" stroke="black" stroke-width="2" stroke-linecap="round" stroke-linejoin="round"/>
<path d="M69.5368 50.7749L62.8283 57.371" stroke="black" stroke-width="2" stroke-linecap="round" stroke-linejoin="round"/>
</svg>
